<svg width="33" height="33" viewBox="0 0 33 33" fill="none" xmlns="http://www.w3.org/2000/svg">
<path d="M8.39215 32.6023C6.49232 32.5159 5.46028 32.1997 4.77383 31.9319C3.86427 31.5778 3.21581 31.1563 2.53316 30.4746C1.85051 29.7929 1.42801 29.1444 1.07577 28.2348C0.808029 27.5484 0.491866 26.5163 0.405467 24.6165C0.310523 22.5629 0.291534 21.9467 0.291534 16.7438C0.291534 11.5409 0.312422 10.9256 0.404518 8.87008C0.490917 6.97025 0.808979 5.94011 1.07482 5.25177C1.42896 4.34221 1.85146 3.69374 2.53221 3.01015C3.21391 2.32845 3.86237 1.905 4.77289 1.55276C5.45933 1.28502 6.49137 0.968852 8.3912 0.882453C10.4458 0.788459 11.0629 0.76947 16.2639 0.76947C21.4669 0.76947 22.0821 0.790358 24.1376 0.882453C26.0375 0.968852 27.0676 1.28691 27.7559 1.55276C28.6655 1.905 29.314 2.32845 29.9966 3.01015C30.6793 3.69184 31.0999 4.34126 31.454 5.25082C31.7218 5.93727 32.0379 6.96931 32.1243 8.86913C32.2183 10.9247 32.2373 11.5399 32.2373 16.7428C32.2373 21.9439 32.2183 22.561 32.1243 24.6165C32.0379 26.5163 31.7199 27.5484 31.454 28.2348C31.0999 29.1444 30.6783 29.7929 29.9966 30.4746C29.3149 31.1563 28.6655 31.5778 27.7559 31.9319C27.0695 32.1997 26.0375 32.5159 24.1376 32.6023C22.084 32.6962 21.4669 32.7152 16.2639 32.7152C11.0629 32.7152 10.4458 32.6972 8.39215 32.6023Z" fill="url(#paint0_radial_24_11)"/>
<path d="M8.39215 32.6023C6.49232 32.5159 5.46028 32.1997 4.77383 31.9319C3.86427 31.5778 3.21581 31.1563 2.53316 30.4746C1.85051 29.7929 1.42801 29.1444 1.07577 28.2348C0.808029 27.5484 0.491866 26.5163 0.405467 24.6165C0.310523 22.5629 0.291534 21.9467 0.291534 16.7438C0.291534 11.5409 0.312422 10.9256 0.404518 8.87008C0.490917 6.97025 0.808979 5.94011 1.07482 5.25177C1.42896 4.34221 1.85146 3.69374 2.53221 3.01015C3.21391 2.32845 3.86237 1.905 4.77289 1.55276C5.45933 1.28502 6.49137 0.968852 8.3912 0.882453C10.4458 0.788459 11.0629 0.76947 16.2639 0.76947C21.4669 0.76947 22.0821 0.790358 24.1376 0.882453C26.0375 0.968852 27.0676 1.28691 27.7559 1.55276C28.6655 1.905 29.314 2.32845 29.9966 3.01015C30.6793 3.69184 31.0999 4.34126 31.454 5.25082C31.7218 5.93727 32.0379 6.96931 32.1243 8.86913C32.2183 10.9247 32.2373 11.5399 32.2373 16.7428C32.2373 21.9439 32.2183 22.561 32.1243 24.6165C32.0379 26.5163 31.7199 27.5484 31.454 28.2348C31.0999 29.1444 30.6783 29.7929 29.9966 30.4746C29.3149 31.1563 28.6655 31.5778 27.7559 31.9319C27.0695 32.1997 26.0375 32.5159 24.1376 32.6023C22.084 32.6962 21.4669 32.7152 16.2639 32.7152C11.0629 32.7152 10.4458 32.6972 8.39215 32.6023Z" fill="#AAAAAA"/>
<path d="M12.3294 16.8209C12.3294 14.6328 14.0999 12.8585 16.2845 12.8585C18.4691 12.8585 20.2405 14.6328 20.2405 16.8209C20.2405 19.009 18.4691 20.7833 16.2845 20.7833C14.0999 20.7833 12.3294 19.009 12.3294 16.8209ZM10.1909 16.8209C10.1909 20.1919 12.919 22.9244 16.2845 22.9244C19.65 22.9244 22.3782 20.1919 22.3782 16.8209C22.3782 13.4499 19.65 10.7174 16.2845 10.7174C12.919 10.7174 10.191 13.4498 10.191 16.8209H10.1909ZM21.1954 10.4754C21.1953 10.7575 21.2787 11.0333 21.4351 11.268C21.5915 11.5026 21.8138 11.6855 22.074 11.7935C22.3342 11.9016 22.6205 11.93 22.8967 11.875C23.173 11.8201 23.4268 11.6844 23.626 11.485C23.8253 11.2856 23.961 11.0315 24.0161 10.7548C24.0711 10.4781 24.043 10.1913 23.9354 9.93066C23.8277 9.66999 23.6452 9.44715 23.4111 9.29032C23.177 9.1335 22.9017 9.04973 22.6201 9.04962H22.6195C22.242 9.0498 21.8799 9.20005 21.6129 9.46739C21.3459 9.73472 21.1958 10.0973 21.1954 10.4754ZM11.4902 26.4962C10.3332 26.4434 9.70431 26.2504 9.28639 26.0873C8.73234 25.8713 8.33702 25.6139 7.92139 25.1982C7.50575 24.7825 7.24847 24.3869 7.03372 23.8319C6.87081 23.4135 6.67809 22.7835 6.62549 21.6246C6.56796 20.3717 6.55647 19.9953 6.55647 16.8211C6.55647 13.6469 6.56891 13.2716 6.62549 12.0176C6.67818 10.8587 6.87233 10.2299 7.03372 9.81025C7.24942 9.2553 7.50632 8.85934 7.92139 8.44304C8.33645 8.02673 8.73139 7.76903 9.28639 7.55394C9.70412 7.39076 10.3332 7.19773 11.4902 7.14505C12.7411 7.08742 13.1168 7.07592 16.2845 7.07592C19.4522 7.07592 19.8283 7.08819 21.0803 7.14524C22.2373 7.19801 22.8651 7.39248 23.284 7.55413C23.8381 7.76922 24.2334 8.02749 24.6491 8.44323C25.0647 8.85896 25.321 9.25549 25.5367 9.81044C25.6996 10.2288 25.8924 10.8589 25.945 12.0178C26.0025 13.2717 26.014 13.6471 26.014 16.8213C26.014 19.9955 26.0025 20.3708 25.945 21.6248C25.8923 22.7837 25.6986 23.4135 25.5367 23.8321C25.321 24.3871 25.0641 24.783 24.6491 25.1984C24.234 25.6138 23.8381 25.8715 23.284 26.0875C22.8663 26.2507 22.2373 26.4437 21.0803 26.4964C19.8294 26.554 19.4536 26.5655 16.2845 26.5655C13.1154 26.5655 12.7407 26.554 11.4902 26.4964V26.4962ZM11.3919 5.00655C10.1286 5.06418 9.26532 5.26482 8.51142 5.55865C7.73113 5.86209 7.0697 6.26917 6.40922 6.92967C5.74874 7.59017 5.34336 8.25276 5.04042 9.03526C4.74706 9.79085 4.54674 10.655 4.48921 11.9204C4.43073 13.1878 4.41734 13.593 4.41734 16.8209C4.41734 20.0489 4.43073 20.454 4.48921 21.7214C4.54674 22.9869 4.74706 23.851 5.04042 24.6066C5.34336 25.3881 5.74884 26.0519 6.40922 26.7122C7.06961 27.3724 7.73018 27.7789 8.51142 28.0832C9.26674 28.377 10.1286 28.5776 11.3919 28.6353C12.6579 28.6929 13.0618 28.7072 16.2845 28.7072C19.5073 28.7072 19.9118 28.6938 21.1771 28.6353C22.4405 28.5776 23.3032 28.377 24.0576 28.0832C24.8379 27.7789 25.4993 27.3727 26.1598 26.7122C26.8203 26.0517 27.2248 25.3881 27.5286 24.6066C27.822 23.851 28.0232 22.9868 28.0798 21.7214C28.1373 20.4531 28.1507 20.0489 28.1507 16.8209C28.1507 13.593 28.1373 13.1878 28.0798 11.9204C28.0223 10.6549 27.822 9.79038 27.5286 9.03526C27.2248 8.25371 26.8192 7.59122 26.1598 6.92967C25.5004 6.26812 24.8379 5.86209 24.0585 5.55865C23.3032 5.26482 22.4404 5.06323 21.1781 5.00655C19.9125 4.94864 19.5082 4.93457 16.2859 4.93457C13.0637 4.93457 12.6584 4.94798 11.3924 5.00655" fill="white"/>
<defs>
<radialGradient id="paint0_radial_24_11" cx="0" cy="0" r="1" gradientUnits="userSpaceOnUse" gradientTransform="translate(2.35903 32.0154) scale(40.5593)">
<stop offset="0.09" stop-color="#FA8F21"/>
<stop offset="0.78" stop-color="#D82D7E"/>
</radialGradient>
</defs>
</svg>
