<svg width="33" height="33" viewBox="0 0 33 33" fill="none" xmlns="http://www.w3.org/2000/svg">
<path d="M16.4204 32.7152C25.2419 32.7152 32.3932 25.5639 32.3932 16.7424C32.3932 7.92077 25.2419 0.76947 16.4204 0.76947C7.59878 0.76947 0.447479 7.92077 0.447479 16.7424C0.447479 25.5639 7.59878 32.7152 16.4204 32.7152Z" fill="#AAAAAA"/>
<path d="M21.7408 5.22699H18.2886C16.24 5.22699 13.9613 6.12478 13.9613 9.21901C13.9713 10.2972 13.9613 11.3297 13.9613 12.4918H11.5913V16.4214H14.0347V27.7342H18.5244V16.3468H21.4878L21.7559 12.4807H18.447C18.447 12.4807 18.4544 10.761 18.447 10.2615C18.447 9.03876 19.6681 9.10879 19.7416 9.10879C20.3226 9.10879 21.4524 9.11055 21.7425 9.10879V5.22699H21.7408Z" fill="white"/>
</svg>
