<?xml version="1.0" encoding="utf-8"?><svg width="20" height="21" xmlns="http://www.w3.org/2000/svg" viewBox="0 0 20 21"><path d="M6.668 10.588c0-1.909 1.491-3.456 3.332-3.456 1.841 0 3.334 1.547 3.334 3.456S11.841 14.044 10 14.044c-1.84 0-3.332-1.548-3.332-3.456zm-1.803 0c0 2.94 2.3 5.324 5.135 5.324 2.836 0 5.135-2.384 5.135-5.324S12.836 5.264 10 5.264s-5.135 2.384-5.135 5.324zm9.273-5.535c0 .246.07.487.203.692.131.204.319.364.538.458.22.094.46.119.693.071.233-.048.447-.166.615-.34a1.287 1.287 0 00.26-1.356 1.236 1.236 0 00-.441-.558 1.17 1.17 0 00-.667-.21 1.18 1.18 0 00-.849.364c-.225.233-.351.55-.351.88zM5.96 19.027c-.975-.046-1.505-.215-1.857-.357a3.098 3.098 0 01-1.15-.775 3.212 3.212 0 01-.748-1.192c-.137-.365-.3-.914-.344-1.925-.048-1.093-.058-1.421-.058-4.19s.01-3.096.058-4.19c.044-1.01.208-1.559.344-1.925.182-.484.398-.83.748-1.192.35-.364.683-.588 1.15-.776.352-.142.882-.31 1.857-.357 1.054-.05 1.371-.06 4.04-.06 2.67 0 2.987.011 4.042.06.975.046 1.504.216 1.857.357.467.188.8.413 1.15.776.35.362.566.708.748 1.192.137.365.3.915.344 1.925.048 1.094.058 1.421.058 4.19s-.01 3.096-.058 4.19c-.045 1.01-.208 1.56-.344 1.925-.182.484-.398.83-.748 1.192s-.683.587-1.15.775c-.352.143-.882.31-1.857.357-1.054.05-1.371.06-4.042.06-2.67 0-2.986-.01-4.04-.06zM5.878.283C4.813.333 4.086.51 3.45.765A4.89 4.89 0 001.68 1.96 5.088 5.088 0 00.525 3.797C.278 4.457.11 5.21.061 6.314.01 7.419 0 7.772 0 10.588s.01 3.169.06 4.274c.048 1.104.217 1.858.464 2.517a5.09 5.09 0 001.154 1.836c.556.576 1.113.93 1.771 1.196.637.256 1.363.431 2.428.482 1.066.05 1.407.063 4.122.063 2.716 0 3.057-.012 4.123-.063 1.065-.05 1.792-.226 2.427-.482a4.903 4.903 0 001.772-1.196 5.102 5.102 0 001.153-1.836c.247-.66.417-1.413.465-2.517.048-1.106.06-1.459.06-4.274 0-2.816-.012-3.169-.06-4.274-.049-1.104-.218-1.858-.465-2.517a5.121 5.121 0 00-1.153-1.836 4.879 4.879 0 00-1.77-1.196c-.637-.256-1.364-.432-2.428-.482C13.058.233 12.717.22 10.001.22S6.944.232 5.878.283z"/></svg>