<?xml version="1.0" encoding="utf-8"?><svg width="150" height="150" viewBox="0 0 140 31" xmlns="http://www.w3.org/2000/svg"><path d="M9.24 24.32a17.9 17.9 0 01-2.816-.224 14.64 14.64 0 01-2.656-.608 10.923 10.923 0 01-2.24-1.088c-.384-.256-.65-.565-.8-.928a2.07 2.07 0 01-.16-1.056c.064-.363.203-.672.416-.928.235-.277.523-.448.864-.512.341-.064.715.032 1.12.288.939.555 1.93.96 2.976 1.216 1.045.256 2.144.384 3.296.384 1.685 0 2.912-.277 3.68-.832.768-.576 1.152-1.312 1.152-2.208 0-.747-.277-1.333-.832-1.76-.533-.427-1.461-.779-2.784-1.056l-3.52-.736c-2.027-.427-3.541-1.141-4.544-2.144C1.411 11.104.92 9.76.92 8.096c0-1.045.213-1.995.64-2.848A6.605 6.605 0 013.352 3.04c.79-.619 1.717-1.088 2.784-1.408 1.088-.341 2.283-.512 3.584-.512 1.28 0 2.496.16 3.648.48 1.152.32 2.187.79 3.104 1.408.341.235.565.523.672.864.128.341.16.683.096 1.024-.064.32-.213.597-.448.832a1.468 1.468 0 01-.896.416c-.341.043-.736-.064-1.184-.32a9.109 9.109 0 00-2.4-.96 11.369 11.369 0 00-2.624-.288c-.981 0-1.824.139-2.528.416-.704.277-1.248.672-1.632 1.184-.363.49-.544 1.077-.544 1.76 0 .768.256 1.387.768 1.856.512.448 1.387.8 2.624 1.056l3.488.736c2.112.448 3.68 1.152 4.704 2.112 1.045.96 1.568 2.24 1.568 3.84 0 1.024-.213 1.952-.64 2.784-.405.832-1.003 1.547-1.792 2.144-.768.597-1.696 1.056-2.784 1.376-1.088.32-2.315.48-3.68.48zm14.011-.096c-.64 0-1.13-.192-1.472-.576-.34-.384-.512-.917-.512-1.6V10.304c0-.704.171-1.237.512-1.6.342-.384.832-.576 1.473-.576.64 0 1.13.192 1.472.576.362.363.543.896.543 1.6v11.744c0 .683-.17 1.216-.511 1.6-.342.384-.843.576-1.505.576zm0-19.072c-.746 0-1.333-.181-1.76-.544-.405-.384-.607-.907-.607-1.568 0-.683.202-1.205.607-1.568.427-.363 1.014-.544 1.76-.544.768 0 1.355.181 1.76.544.406.363.608.885.608 1.568 0 .661-.202 1.184-.607 1.568-.406.363-.992.544-1.76.544zm8.22 19.104c-.64 0-1.13-.17-1.471-.512-.342-.363-.512-.875-.512-1.536V10.112c0-.661.17-1.163.512-1.504.341-.341.821-.512 1.44-.512.618 0 1.098.17 1.44.512.341.341.512.843.512 1.504v2.336l-.352-.96c.426-1.067 1.088-1.91 1.984-2.528.896-.619 1.962-.928 3.2-.928 1.258 0 2.293.299 3.104.896.81.597 1.376 1.515 1.696 2.752h-.448c.426-1.13 1.13-2.016 2.112-2.656.981-.661 2.112-.992 3.392-.992 1.194 0 2.176.235 2.944.704.79.47 1.376 1.184 1.76 2.144.384.939.576 2.133.576 3.584v7.744c0 .661-.182 1.173-.544 1.536-.342.341-.832.512-1.472.512s-1.13-.17-1.472-.512c-.342-.363-.512-.875-.512-1.536v-7.584c0-1.195-.203-2.07-.608-2.624-.384-.555-1.046-.832-1.984-.832-1.046 0-1.867.373-2.464 1.12-.598.725-.896 1.739-.896 3.04v6.88c0 .661-.17 1.173-.512 1.536-.342.341-.832.512-1.472.512s-1.142-.17-1.504-.512c-.342-.363-.512-.875-.512-1.536v-7.584c0-1.195-.203-2.07-.608-2.624-.384-.555-1.035-.832-1.952-.832-1.046 0-1.867.373-2.464 1.12-.598.725-.896 1.739-.896 3.04v6.88c0 1.365-.672 2.048-2.016 2.048zm28 5.76c-.64 0-1.131-.17-1.473-.512-.341-.341-.512-.843-.512-1.504V10.112c0-.661.17-1.163.512-1.504.342-.341.822-.512 1.44-.512.64 0 1.13.17 1.472.512.342.341.512.843.512 1.504v2.496l-.352-.96c.32-1.088.97-1.963 1.952-2.624 1.003-.661 2.166-.992 3.488-.992 1.366 0 2.56.33 3.584.992 1.046.661 1.856 1.6 2.432 2.816.576 1.195.864 2.635.864 4.32 0 1.664-.288 3.115-.864 4.352-.576 1.216-1.376 2.155-2.4 2.816s-2.23.992-3.616.992c-1.301 0-2.442-.32-3.424-.96-.981-.661-1.642-1.515-1.984-2.56h.384V28c0 .661-.181 1.163-.544 1.504-.341.341-.832.512-1.472.512zm5.92-8.736c.789 0 1.482-.192 2.08-.576.597-.384 1.055-.95 1.375-1.696.342-.768.512-1.717.512-2.848 0-1.707-.362-2.976-1.088-3.808-.725-.853-1.685-1.28-2.88-1.28-.79 0-1.482.192-2.08.576-.597.363-1.066.928-1.408 1.696-.32.747-.48 1.685-.48 2.816 0 1.685.363 2.965 1.088 3.84.726.853 1.686 1.28 2.88 1.28zm18.227 3.008c-1.558 0-2.902-.341-4.032-1.024s-2.006-1.632-2.624-2.848c-.598-1.237-.896-2.667-.896-4.288 0-1.237.17-2.347.512-3.328.341-.981.842-1.813 1.504-2.496a6.467 6.467 0 012.368-1.6c.938-.363 1.994-.544 3.168-.544.768 0 1.568.117 2.4.352a6.03 6.03 0 012.272 1.216c.213.15.352.33.416.544a1.09 1.09 0 010 .64c-.064.192-.17.363-.32.512a1 1 0 01-.576.224c-.214.021-.438-.053-.672-.224-.555-.427-1.12-.725-1.696-.896a5.85 5.85 0 00-1.664-.256c-.832 0-1.558.139-2.176.416a4.146 4.146 0 00-1.568 1.12c-.427.49-.758 1.099-.992 1.824-.214.725-.32 1.568-.32 2.528 0 1.856.437 3.328 1.312 4.416.874 1.067 2.122 1.6 3.744 1.6a5.53 5.53 0 001.632-.256c.576-.17 1.152-.47 1.728-.896.234-.17.458-.245.672-.224a.87.87 0 01.544.256c.15.128.245.299.288.512a1.09 1.09 0 010 .64c-.064.192-.203.363-.416.512-.683.555-1.43.96-2.24 1.216-.81.235-1.6.352-2.368.352zm14.372 0c-1.515 0-2.827-.33-3.936-.992-1.11-.661-1.974-1.59-2.592-2.784-.598-1.216-.896-2.645-.896-4.288 0-1.237.17-2.347.512-3.328.341-1.003.842-1.856 1.504-2.56a6.529 6.529 0 012.336-1.6c.917-.384 1.941-.576 3.072-.576 1.514 0 2.826.33 3.936.992 1.109.661 1.962 1.6 2.56 2.816.618 1.195.928 2.613.928 4.256 0 1.237-.171 2.347-.512 3.328a7.335 7.335 0 01-1.504 2.56 6.83 6.83 0 01-2.368 1.632c-.896.363-1.91.544-3.04.544zm0-2.08c.96 0 1.802-.235 2.528-.704.725-.47 1.28-1.152 1.664-2.048.405-.896.608-1.973.608-3.232 0-1.941-.438-3.424-1.312-4.448-.854-1.024-2.016-1.536-3.488-1.536-.982 0-1.835.235-2.56.704-.704.448-1.259 1.12-1.664 2.016-.384.875-.576 1.963-.576 3.264 0 1.92.437 3.403 1.312 4.448.874 1.024 2.037 1.536 3.488 1.536zm17.781 2.08c-1.515 0-2.827-.33-3.936-.992-1.109-.661-1.973-1.59-2.592-2.784-.597-1.216-.896-2.645-.896-4.288 0-1.237.171-2.347.512-3.328.341-1.003.843-1.856 1.504-2.56a6.526 6.526 0 012.336-1.6c.917-.384 1.941-.576 3.072-.576 1.515 0 2.827.33 3.936.992 1.109.661 1.963 1.6 2.56 2.816.619 1.195.928 2.613.928 4.256 0 1.237-.171 2.347-.512 3.328a7.32 7.32 0 01-1.504 2.56 6.82 6.82 0 01-2.368 1.632c-.896.363-1.909.544-3.04.544zm0-2.08c.96 0 1.803-.235 2.528-.704.725-.47 1.28-1.152 1.664-2.048.405-.896.608-1.973.608-3.232 0-1.941-.437-3.424-1.312-4.448-.853-1.024-2.016-1.536-3.488-1.536-.981 0-1.835.235-2.56.704-.704.448-1.259 1.12-1.664 2.016-.384.875-.576 1.963-.576 3.264 0 1.92.437 3.403 1.312 4.448.875 1.024 2.037 1.536 3.488 1.536zm12.597 2.016c-.426 0-.746-.117-.96-.352-.213-.235-.32-.565-.32-.992V2.528c0-.427.107-.747.32-.96.214-.235.534-.352.96-.352.406 0 .726.117.96.352.235.213.352.533.352.96V15.36h.064l6.56-6.272c.299-.277.555-.49.768-.64.235-.15.544-.224.928-.224.342 0 .608.096.8.288.192.17.278.395.256.672 0 .256-.128.533-.384.832l-6.976 6.624v-1.408l7.584 7.136c.299.299.448.587.448.864a.91.91 0 01-.32.704c-.192.192-.448.288-.768.288-.384 0-.693-.075-.928-.224a9.715 9.715 0 01-.864-.736l-7.104-6.56h-.064v6.176c0 .896-.437 1.344-1.312 1.344z"/></svg>