<?xml version="1.0" encoding="utf-8"?><svg width="20" height="18" xmlns="http://www.w3.org/2000/svg" viewBox="0 0 20 18"><path d="M17.841 5.003v.518c0 5.365-3.95 11.56-11.15 11.56-2.225 0-4.275-.674-6.025-1.815.3.026.625.052.925.052a7.755 7.755 0 004.875-1.736c-1.725-.026-3.175-1.219-3.65-2.825.25.051.475.077.75.077.35 0 .7-.052 1.025-.155-1.8-.363-3.15-1.996-3.15-3.966v-.052a3.749 3.749 0 001.775.519 4.111 4.111 0 01-1.75-3.396c0-.751.2-1.451.525-2.047 1.925 2.462 4.825 4.069 8.075 4.25a3.808 3.808 0 01-.1-.933c0-2.255 1.75-4.069 3.926-4.069 1.125 0 2.15.493 2.85 1.27a7.795 7.795 0 002.5-.985 4.165 4.165 0 01-1.726 2.255c.8-.104 1.55-.31 2.25-.648-.5.83-1.15 1.555-1.924 2.126z"/></svg>