<svg width="150" height="150" viewBox="0 0 140 31" xmlns="http://www.w3.org/2000/svg">
<path d="M9.24 24.32C8.30133 24.32 7.36267 24.2453 6.424 24.096C5.48533 23.968 4.6 23.7653 3.768 23.488C2.936 23.1893 2.18933 22.8267 1.528 22.4C1.144 22.144 0.877333 21.8347 0.728 21.472C0.578667 21.1093 0.525333 20.7573 0.568 20.416C0.632 20.0533 0.770667 19.744 0.984 19.488C1.21867 19.2107 1.50667 19.04 1.848 18.976C2.18933 18.912 2.56267 19.008 2.968 19.264C3.90667 19.8187 4.89867 20.224 5.944 20.48C6.98933 20.736 8.088 20.864 9.24 20.864C10.9253 20.864 12.152 20.5867 12.92 20.032C13.688 19.456 14.072 18.72 14.072 17.824C14.072 17.0773 13.7947 16.4907 13.24 16.064C12.7067 15.6373 11.7787 15.2853 10.456 15.008L6.936 14.272C4.90933 13.8453 3.39467 13.1307 2.392 12.128C1.41067 11.104 0.92 9.76 0.92 8.096C0.92 7.05067 1.13333 6.10133 1.56 5.248C1.98667 4.39467 2.584 3.65867 3.352 3.04C4.14133 2.42133 5.06933 1.952 6.136 1.632C7.224 1.29067 8.41867 1.12 9.72 1.12C11 1.12 12.216 1.28 13.368 1.6C14.52 1.92 15.5547 2.38933 16.472 3.008C16.8133 3.24267 17.0373 3.53067 17.144 3.872C17.272 4.21333 17.304 4.55467 17.24 4.896C17.176 5.216 17.0267 5.49333 16.792 5.728C16.5573 5.96267 16.2587 6.10133 15.896 6.144C15.5547 6.18667 15.16 6.08 14.712 5.824C13.9227 5.376 13.1227 5.056 12.312 4.864C11.5013 4.672 10.6267 4.576 9.688 4.576C8.70667 4.576 7.864 4.71467 7.16 4.992C6.456 5.26933 5.912 5.664 5.528 6.176C5.16533 6.66667 4.984 7.25333 4.984 7.936C4.984 8.704 5.24 9.32267 5.752 9.792C6.264 10.24 7.13867 10.592 8.376 10.848L11.864 11.584C13.976 12.032 15.544 12.736 16.568 13.696C17.6133 14.656 18.136 15.936 18.136 17.536C18.136 18.56 17.9227 19.488 17.496 20.32C17.0907 21.152 16.4933 21.8667 15.704 22.464C14.936 23.0613 14.008 23.52 12.92 23.84C11.832 24.16 10.6053 24.32 9.24 24.32ZM23.2515 24.224C22.6115 24.224 22.1208 24.032 21.7795 23.648C21.4382 23.264 21.2675 22.7307 21.2675 22.048V10.304C21.2675 9.6 21.4382 9.06667 21.7795 8.704C22.1208 8.32 22.6115 8.128 23.2515 8.128C23.8915 8.128 24.3822 8.32 24.7235 8.704C25.0862 9.06667 25.2675 9.6 25.2675 10.304V22.048C25.2675 22.7307 25.0968 23.264 24.7555 23.648C24.4142 24.032 23.9128 24.224 23.2515 24.224ZM23.2515 5.152C22.5048 5.152 21.9182 4.97067 21.4915 4.608C21.0862 4.224 20.8835 3.70133 20.8835 3.04C20.8835 2.35733 21.0862 1.83467 21.4915 1.472C21.9182 1.10933 22.5048 0.927999 23.2515 0.927999C24.0195 0.927999 24.6062 1.10933 25.0115 1.472C25.4168 1.83467 25.6195 2.35733 25.6195 3.04C25.6195 3.70133 25.4168 4.224 25.0115 4.608C24.6062 4.97067 24.0195 5.152 23.2515 5.152ZM31.4718 24.256C30.8318 24.256 30.3411 24.0853 29.9998 23.744C29.6584 23.3813 29.4878 22.8693 29.4878 22.208V10.112C29.4878 9.45067 29.6584 8.94933 29.9998 8.608C30.3411 8.26667 30.8211 8.096 31.4398 8.096C32.0584 8.096 32.5384 8.26667 32.8798 8.608C33.2211 8.94933 33.3918 9.45067 33.3918 10.112V12.448L33.0398 11.488C33.4664 10.4213 34.1278 9.57867 35.0238 8.96C35.9198 8.34133 36.9864 8.032 38.2238 8.032C39.4824 8.032 40.5171 8.33067 41.3278 8.928C42.1384 9.52533 42.7038 10.4427 43.0238 11.68H42.5758C43.0024 10.5493 43.7064 9.664 44.6878 9.024C45.6691 8.36267 46.7998 8.032 48.0798 8.032C49.2744 8.032 50.2558 8.26667 51.0238 8.736C51.8131 9.20533 52.3998 9.92 52.7838 10.88C53.1678 11.8187 53.3598 13.0133 53.3598 14.464V22.208C53.3598 22.8693 53.1784 23.3813 52.8158 23.744C52.4744 24.0853 51.9838 24.256 51.3438 24.256C50.7038 24.256 50.2131 24.0853 49.8718 23.744C49.5304 23.3813 49.3598 22.8693 49.3598 22.208V14.624C49.3598 13.4293 49.1571 12.5547 48.7518 12C48.3678 11.4453 47.7064 11.168 46.7678 11.168C45.7224 11.168 44.9011 11.5413 44.3038 12.288C43.7064 13.0133 43.4078 14.0267 43.4078 15.328V22.208C43.4078 22.8693 43.2371 23.3813 42.8958 23.744C42.5544 24.0853 42.0638 24.256 41.4238 24.256C40.7838 24.256 40.2824 24.0853 39.9198 23.744C39.5784 23.3813 39.4078 22.8693 39.4078 22.208V14.624C39.4078 13.4293 39.2051 12.5547 38.7998 12C38.4158 11.4453 37.7651 11.168 36.8478 11.168C35.8024 11.168 34.9811 11.5413 34.3838 12.288C33.7864 13.0133 33.4878 14.0267 33.4878 15.328V22.208C33.4878 23.5733 32.8158 24.256 31.4718 24.256ZM59.4703 30.016C58.8303 30.016 58.3396 29.8453 57.9983 29.504C57.6569 29.1627 57.4863 28.6613 57.4863 28V10.112C57.4863 9.45067 57.6569 8.94933 57.9983 8.608C58.3396 8.26667 58.8196 8.096 59.4383 8.096C60.0783 8.096 60.5689 8.26667 60.9103 8.608C61.2516 8.94933 61.4223 9.45067 61.4223 10.112V12.608L61.0703 11.648C61.3903 10.56 62.0409 9.68533 63.0223 9.024C64.0249 8.36267 65.1876 8.032 66.5103 8.032C67.8756 8.032 69.0703 8.36267 70.0943 9.024C71.1396 9.68533 71.9503 10.624 72.5263 11.84C73.1023 13.0347 73.3903 14.4747 73.3903 16.16C73.3903 17.824 73.1023 19.2747 72.5263 20.512C71.9503 21.728 71.1503 22.6667 70.1263 23.328C69.1023 23.9893 67.8969 24.32 66.5103 24.32C65.2089 24.32 64.0676 24 63.0863 23.36C62.1049 22.6987 61.4436 21.8453 61.1023 20.8H61.4863V28C61.4863 28.6613 61.3049 29.1627 60.9423 29.504C60.6009 29.8453 60.1103 30.016 59.4703 30.016ZM65.3903 21.28C66.1796 21.28 66.8729 21.088 67.4703 20.704C68.0676 20.32 68.5263 19.7547 68.8463 19.008C69.1876 18.24 69.3583 17.2907 69.3583 16.16C69.3583 14.4533 68.9956 13.184 68.2703 12.352C67.5449 11.4987 66.5849 11.072 65.3903 11.072C64.6009 11.072 63.9076 11.264 63.3103 11.648C62.7129 12.0107 62.2436 12.576 61.9023 13.344C61.5823 14.0907 61.4223 15.0293 61.4223 16.16C61.4223 17.8453 61.7849 19.1253 62.5103 20C63.2356 20.8533 64.1956 21.28 65.3903 21.28ZM83.6178 24.288C82.0604 24.288 80.7164 23.9467 79.5858 23.264C78.4551 22.5813 77.5804 21.632 76.9618 20.416C76.3644 19.1787 76.0658 17.7493 76.0658 16.128C76.0658 14.8907 76.2364 13.7813 76.5778 12.8C76.9191 11.8187 77.4204 10.9867 78.0818 10.304C78.7431 9.6 79.5324 9.06667 80.4498 8.704C81.3884 8.34133 82.4444 8.16 83.6178 8.16C84.3858 8.16 85.1858 8.27733 86.0178 8.512C86.8498 8.74667 87.6071 9.152 88.2898 9.728C88.5031 9.87733 88.6418 10.0587 88.7058 10.272C88.7698 10.4853 88.7698 10.6987 88.7058 10.912C88.6418 11.104 88.5351 11.2747 88.3858 11.424C88.2364 11.552 88.0444 11.6267 87.8098 11.648C87.5964 11.6693 87.3724 11.5947 87.1378 11.424C86.5831 10.9973 86.0178 10.6987 85.4418 10.528C84.8658 10.3573 84.3111 10.272 83.7778 10.272C82.9458 10.272 82.2204 10.4107 81.6018 10.688C80.9831 10.944 80.4604 11.3173 80.0338 11.808C79.6071 12.2987 79.2764 12.9067 79.0418 13.632C78.8284 14.3573 78.7218 15.2 78.7218 16.16C78.7218 18.016 79.1591 19.488 80.0338 20.576C80.9084 21.6427 82.1564 22.176 83.7778 22.176C84.3111 22.176 84.8551 22.0907 85.4098 21.92C85.9858 21.7493 86.5618 21.4507 87.1378 21.024C87.3724 20.8533 87.5964 20.7787 87.8098 20.8C88.0231 20.8213 88.2044 20.9067 88.3538 21.056C88.5031 21.184 88.5991 21.3547 88.6418 21.568C88.7058 21.7813 88.7058 21.9947 88.6418 22.208C88.5778 22.4 88.4391 22.5707 88.2258 22.72C87.5431 23.2747 86.7964 23.68 85.9858 23.936C85.1751 24.1707 84.3858 24.288 83.6178 24.288ZM97.9898 24.288C96.4751 24.288 95.1631 23.9573 94.0538 23.296C92.9444 22.6347 92.0804 21.7067 91.4618 20.512C90.8644 19.296 90.5658 17.8667 90.5658 16.224C90.5658 14.9867 90.7364 13.8773 91.0778 12.896C91.4191 11.8933 91.9204 11.04 92.5818 10.336C93.2431 9.632 94.0218 9.09867 94.9178 8.736C95.8351 8.352 96.8591 8.16 97.9898 8.16C99.5044 8.16 100.816 8.49067 101.926 9.152C103.035 9.81333 103.888 10.752 104.486 11.968C105.104 13.1627 105.414 14.5813 105.414 16.224C105.414 17.4613 105.243 18.5707 104.902 19.552C104.56 20.5333 104.059 21.3867 103.398 22.112C102.736 22.816 101.947 23.36 101.03 23.744C100.134 24.1067 99.1204 24.288 97.9898 24.288ZM97.9898 22.208C98.9498 22.208 99.7924 21.9733 100.518 21.504C101.243 21.0347 101.798 20.352 102.182 19.456C102.587 18.56 102.79 17.4827 102.79 16.224C102.79 14.2827 102.352 12.8 101.478 11.776C100.624 10.752 99.4618 10.24 97.9898 10.24C97.0084 10.24 96.1551 10.4747 95.4298 10.944C94.7258 11.392 94.1711 12.064 93.7658 12.96C93.3818 13.8347 93.1898 14.9227 93.1898 16.224C93.1898 18.144 93.6271 19.6267 94.5018 20.672C95.3764 21.696 96.5391 22.208 97.9898 22.208ZM115.771 24.288C114.256 24.288 112.944 23.9573 111.835 23.296C110.726 22.6347 109.862 21.7067 109.243 20.512C108.646 19.296 108.347 17.8667 108.347 16.224C108.347 14.9867 108.518 13.8773 108.859 12.896C109.2 11.8933 109.702 11.04 110.363 10.336C111.024 9.632 111.803 9.09867 112.699 8.736C113.616 8.352 114.64 8.16 115.771 8.16C117.286 8.16 118.598 8.49067 119.707 9.152C120.816 9.81333 121.67 10.752 122.267 11.968C122.886 13.1627 123.195 14.5813 123.195 16.224C123.195 17.4613 123.024 18.5707 122.683 19.552C122.342 20.5333 121.84 21.3867 121.179 22.112C120.518 22.816 119.728 23.36 118.811 23.744C117.915 24.1067 116.902 24.288 115.771 24.288ZM115.771 22.208C116.731 22.208 117.574 21.9733 118.299 21.504C119.024 21.0347 119.579 20.352 119.963 19.456C120.368 18.56 120.571 17.4827 120.571 16.224C120.571 14.2827 120.134 12.8 119.259 11.776C118.406 10.752 117.243 10.24 115.771 10.24C114.79 10.24 113.936 10.4747 113.211 10.944C112.507 11.392 111.952 12.064 111.547 12.96C111.163 13.8347 110.971 14.9227 110.971 16.224C110.971 18.144 111.408 19.6267 112.283 20.672C113.158 21.696 114.32 22.208 115.771 22.208ZM128.368 24.224C127.942 24.224 127.622 24.1067 127.408 23.872C127.195 23.6373 127.088 23.3067 127.088 22.88V2.528C127.088 2.10133 127.195 1.78133 127.408 1.568C127.622 1.33333 127.942 1.216 128.368 1.216C128.774 1.216 129.094 1.33333 129.328 1.568C129.563 1.78133 129.68 2.10133 129.68 2.528V15.36H129.744L136.304 9.088C136.603 8.81067 136.859 8.59733 137.072 8.448C137.307 8.29867 137.616 8.224 138 8.224C138.342 8.224 138.608 8.32 138.8 8.512C138.992 8.68267 139.078 8.90667 139.056 9.184C139.056 9.44 138.928 9.71733 138.672 10.016L131.696 16.64V15.232L139.28 22.368C139.579 22.6667 139.728 22.9547 139.728 23.232C139.728 23.5093 139.622 23.744 139.408 23.936C139.216 24.128 138.96 24.224 138.64 24.224C138.256 24.224 137.947 24.1493 137.712 24C137.478 23.8293 137.19 23.584 136.848 23.264L129.744 16.704H129.68V22.88C129.68 23.776 129.243 24.224 128.368 24.224Z"/>
</svg>
