<svg width="164" height="35" viewBox="0 0 164 35" fill="none" xmlns="http://www.w3.org/2000/svg">
<path d="M9.2995 26.224C7.65683 26.224 6.18483 25.9573 4.8835 25.424C3.58217 24.8907 2.53683 24.1013 1.7475 23.056C0.9795 22.0107 0.574167 20.752 0.5315 19.28H6.3555C6.44083 20.112 6.72883 20.752 7.2195 21.2C7.71017 21.6267 8.35017 21.84 9.1395 21.84C9.95017 21.84 10.5902 21.6587 11.0595 21.296C11.5288 20.912 11.7635 20.3893 11.7635 19.728C11.7635 19.1733 11.5715 18.7147 11.1875 18.352C10.8248 17.9893 10.3662 17.6907 9.8115 17.456C9.27817 17.2213 8.51017 16.9547 7.5075 16.656C6.05683 16.208 4.87283 15.76 3.9555 15.312C3.03817 14.864 2.24883 14.2027 1.5875 13.328C0.926167 12.4533 0.5955 11.312 0.5955 9.904C0.5955 7.81333 1.35283 6.18133 2.8675 5.008C4.38217 3.81333 6.3555 3.216 8.7875 3.216C11.2622 3.216 13.2568 3.81333 14.7715 5.008C16.2862 6.18133 17.0968 7.824 17.2035 9.936H11.2835C11.2408 9.21067 10.9742 8.64533 10.4835 8.24C9.99283 7.81333 9.3635 7.6 8.5955 7.6C7.93417 7.6 7.40083 7.78133 6.9955 8.144C6.59017 8.48533 6.3875 8.98667 6.3875 9.648C6.3875 10.3733 6.72883 10.9387 7.4115 11.344C8.09417 11.7493 9.16083 12.1867 10.6115 12.656C12.0622 13.1467 13.2355 13.616 14.1315 14.064C15.0488 14.512 15.8382 15.1627 16.4995 16.016C17.1608 16.8693 17.4915 17.968 17.4915 19.312C17.4915 20.592 17.1608 21.7547 16.4995 22.8C15.8595 23.8453 14.9208 24.6773 13.6835 25.296C12.4462 25.9147 10.9848 26.224 9.2995 26.224ZM23.611 6.288C22.651 6.288 21.8617 6.01067 21.243 5.456C20.6457 4.88 20.347 4.176 20.347 3.344C20.347 2.49067 20.6457 1.78667 21.243 1.232C21.8617 0.655998 22.651 0.367998 23.611 0.367998C24.5497 0.367998 25.3177 0.655998 25.915 1.232C26.5337 1.78667 26.843 2.49067 26.843 3.344C26.843 4.176 26.5337 4.88 25.915 5.456C25.3177 6.01067 24.5497 6.288 23.611 6.288ZM26.331 8.144V26H20.859V8.144H26.331ZM53.0805 7.952C55.2992 7.952 57.0592 8.624 58.3605 9.968C59.6832 11.312 60.3445 13.1787 60.3445 15.568V26H54.9045V16.304C54.9045 15.152 54.5952 14.2667 53.9765 13.648C53.3792 13.008 52.5472 12.688 51.4805 12.688C50.4138 12.688 49.5712 13.008 48.9525 13.648C48.3552 14.2667 48.0565 15.152 48.0565 16.304V26H42.6165V16.304C42.6165 15.152 42.3072 14.2667 41.6885 13.648C41.0912 13.008 40.2592 12.688 39.1925 12.688C38.1258 12.688 37.2832 13.008 36.6645 13.648C36.0672 14.2667 35.7685 15.152 35.7685 16.304V26H30.2965V8.144H35.7685V10.384C36.3232 9.63733 37.0485 9.05067 37.9445 8.624C38.8405 8.176 39.8538 7.952 40.9845 7.952C42.3285 7.952 43.5232 8.24 44.5685 8.816C45.6352 9.392 46.4672 10.2133 47.0645 11.28C47.6832 10.2987 48.5258 9.49867 49.5925 8.88C50.6592 8.26133 51.8218 7.952 53.0805 7.952ZM69.6435 10.672C70.1768 9.84 70.9128 9.168 71.8515 8.656C72.7902 8.144 73.8888 7.888 75.1475 7.888C76.6195 7.888 77.9528 8.26133 79.1475 9.008C80.3422 9.75467 81.2808 10.8213 81.9635 12.208C82.6675 13.5947 83.0195 15.2053 83.0195 17.04C83.0195 18.8747 82.6675 20.496 81.9635 21.904C81.2808 23.2907 80.3422 24.368 79.1475 25.136C77.9528 25.8827 76.6195 26.256 75.1475 26.256C73.9102 26.256 72.8115 26 71.8515 25.488C70.9128 24.976 70.1768 24.3147 69.6435 23.504V34.512H64.1715V8.144H69.6435V10.672ZM77.4515 17.04C77.4515 15.6747 77.0675 14.608 76.2995 13.84C75.5528 13.0507 74.6248 12.656 73.5155 12.656C72.4275 12.656 71.4995 13.0507 70.7315 13.84C69.9848 14.6293 69.6115 15.7067 69.6115 17.072C69.6115 18.4373 69.9848 19.5147 70.7315 20.304C71.4995 21.0933 72.4275 21.488 73.5155 21.488C74.6035 21.488 75.5315 21.0933 76.2995 20.304C77.0675 19.4933 77.4515 18.4053 77.4515 17.04ZM84.8023 17.072C84.8023 15.216 85.1756 13.5947 85.9223 12.208C86.6903 10.8213 87.7463 9.75467 89.0903 9.008C90.4556 8.26133 92.0129 7.888 93.7623 7.888C96.0023 7.888 97.8689 8.47467 99.3623 9.648C100.877 10.8213 101.869 12.4747 102.338 14.608H96.5143C96.0236 13.2427 95.0743 12.56 93.6663 12.56C92.6636 12.56 91.8636 12.9547 91.2663 13.744C90.6689 14.512 90.3703 15.6213 90.3703 17.072C90.3703 18.5227 90.6689 19.6427 91.2663 20.432C91.8636 21.2 92.6636 21.584 93.6663 21.584C95.0743 21.584 96.0236 20.9013 96.5143 19.536H102.338C101.869 21.6267 100.877 23.2693 99.3623 24.464C97.8476 25.6587 95.9809 26.256 93.7623 26.256C92.0129 26.256 90.4556 25.8827 89.0903 25.136C87.7463 24.3893 86.6903 23.3227 85.9223 21.936C85.1756 20.5493 84.8023 18.928 84.8023 17.072ZM113.393 26.256C111.644 26.256 110.065 25.8827 108.657 25.136C107.271 24.3893 106.172 23.3227 105.361 21.936C104.572 20.5493 104.177 18.928 104.177 17.072C104.177 15.2373 104.583 13.6267 105.393 12.24C106.204 10.832 107.313 9.75467 108.721 9.008C110.129 8.26133 111.708 7.888 113.457 7.888C115.207 7.888 116.785 8.26133 118.193 9.008C119.601 9.75467 120.711 10.832 121.521 12.24C122.332 13.6267 122.737 15.2373 122.737 17.072C122.737 18.9067 122.321 20.528 121.489 21.936C120.679 23.3227 119.559 24.3893 118.129 25.136C116.721 25.8827 115.143 26.256 113.393 26.256ZM113.393 21.52C114.439 21.52 115.324 21.136 116.049 20.368C116.796 19.6 117.169 18.5013 117.169 17.072C117.169 15.6427 116.807 14.544 116.081 13.776C115.377 13.008 114.503 12.624 113.457 12.624C112.391 12.624 111.505 13.008 110.801 13.776C110.097 14.5227 109.745 15.6213 109.745 17.072C109.745 18.5013 110.087 19.6 110.769 20.368C111.473 21.136 112.348 21.52 113.393 21.52ZM133.768 26.256C132.019 26.256 130.44 25.8827 129.032 25.136C127.646 24.3893 126.547 23.3227 125.736 21.936C124.947 20.5493 124.552 18.928 124.552 17.072C124.552 15.2373 124.958 13.6267 125.768 12.24C126.579 10.832 127.688 9.75467 129.096 9.008C130.504 8.26133 132.083 7.888 133.832 7.888C135.582 7.888 137.16 8.26133 138.568 9.008C139.976 9.75467 141.086 10.832 141.896 12.24C142.707 13.6267 143.112 15.2373 143.112 17.072C143.112 18.9067 142.696 20.528 141.864 21.936C141.054 23.3227 139.934 24.3893 138.504 25.136C137.096 25.8827 135.518 26.256 133.768 26.256ZM133.768 21.52C134.814 21.52 135.699 21.136 136.424 20.368C137.171 19.6 137.544 18.5013 137.544 17.072C137.544 15.6427 137.182 14.544 136.456 13.776C135.752 13.008 134.878 12.624 133.832 12.624C132.766 12.624 131.88 13.008 131.176 13.776C130.472 14.5227 130.12 15.6213 130.12 17.072C130.12 18.5013 130.462 19.6 131.144 20.368C131.848 21.136 132.723 21.52 133.768 21.52ZM156.927 26L151.487 18.512V26H146.015V2.32H151.487V15.408L156.895 8.144H163.647L156.223 17.104L163.711 26H156.927Z" fill="#F58D41"/>
</svg>
